<?xml version="1.0" encoding="UTF-8" standalone="no" ?>
<svg xmlns="http://www.w3.org/2000/svg" xmlns:xlink="http://www.w3.org/1999/xlink" version="1.1" width="1080" height="1080" viewBox="0 0 1080 1080" xml:space="preserve">
<defs>
</defs>
<g transform="matrix(1 0 0 1 540 540)" id="2a220bb6-5b48-475d-961e-cf61e288ad30"  >
<rect style="stroke: none; stroke-width: 1; stroke-dasharray: none; stroke-linecap: butt; stroke-dashoffset: 0; stroke-linejoin: miter; stroke-miterlimit: 4; fill: rgb(255,255,255); fill-rule: nonzero; opacity: 1; visibility: hidden;" vector-effect="non-scaling-stroke"  x="-540" y="-540" rx="0" ry="0" width="1080" height="1080" />
</g>
<g transform="matrix(1 0 0 1 540 540)" id="fd45914b-ae78-4c99-8f0c-f2807b2dc79c"  >
</g>
<g transform="matrix(45.29 0 0 45.29 556.31 508.95)" id="95767c2e-b581-4faa-9009-e8003f7e8866"  >
<path style="stroke: rgb(0,0,0); stroke-width: 0; stroke-dasharray: none; stroke-linecap: butt; stroke-dashoffset: 0; stroke-linejoin: miter; stroke-miterlimit: 4; fill: rgb(0,0,0); fill-rule: nonzero; opacity: 1;" vector-effect="non-scaling-stroke"  transform=" translate(-8.36, -16)" d="M 15.88 13.84 C 14.200000000000001 10.36 10.440000000000001 8.6 6.840000000000002 9.24 L 7.800000000000002 7.44 C 8.040000000000001 7.04 7.880000000000002 6.5200000000000005 7.480000000000001 6.32 C 7.080000000000001 6.08 6.560000000000001 6.24 6.360000000000001 6.640000000000001 L 4.400000000000001 10.280000000000001 C 4.400000000000001 10.280000000000001 3.9600000000000013 11.000000000000002 4.6400000000000015 11.32 L 8.280000000000001 13.280000000000001 C 8.4 13.360000000000001 8.56 13.4 8.680000000000001 13.4 C 8.96 13.4 9.280000000000001 13.24 9.400000000000002 12.96 C 9.640000000000002 12.56 9.480000000000002 12.040000000000001 9.080000000000002 11.84 L 7.200000000000002 10.8 C 10.040000000000003 10.32 13.000000000000002 11.760000000000002 14.320000000000002 14.48 C 15.920000000000002 17.8 14.520000000000001 21.8 11.200000000000003 23.36 C 9.600000000000003 24.12 7.8000000000000025 24.24 6.120000000000003 23.64 C 4.440000000000003 23.040000000000003 3.0800000000000027 21.84 2.320000000000003 20.240000000000002 C 1.560000000000003 18.64 1.440000000000003 16.840000000000003 2.0400000000000027 15.160000000000002 C 2.200000000000003 14.720000000000002 1.9600000000000026 14.240000000000002 1.5200000000000027 14.080000000000002 C 1.1200000000000028 14.000000000000002 0.6400000000000027 14.240000000000002 0.48000000000000265 14.680000000000001 C -0.23999999999999733 16.8 -0.11999999999999733 19.040000000000003 0.8400000000000026 21.040000000000003 C 1.8000000000000025 23.040000000000003 3.4800000000000026 24.560000000000002 5.600000000000002 25.320000000000004 C 6.520000000000002 25.640000000000004 7.440000000000002 25.800000000000004 8.360000000000003 25.800000000000004 C 9.600000000000003 25.800000000000004 10.840000000000003 25.520000000000003 11.960000000000003 24.960000000000004 C 16.120000000000005 22.960000000000004 17.880000000000003 17.960000000000004 15.880000000000003 13.840000000000005 z" stroke-linecap="round" />
</g>
</svg>